<?xml version="1.0" encoding="utf-8"?>
<!-- Generator: Adobe Illustrator 22.1.0, SVG Export Plug-In . SVG Version: 6.00 Build 0)  -->
<svg version="1.1" id="art" xmlns="http://www.w3.org/2000/svg" xmlns:xlink="http://www.w3.org/1999/xlink" x="0px" y="0px"
	 viewBox="0 0 299.9 334.1" style="enable-background:new 0 0 299.9 334.1;" xml:space="preserve">
<style type="text/css">
	.st0{fill:#00A82D;}
	.st1{fill:#005416;}
	.st2{fill:#FFFFFF;}
</style>
<g>
	<path class="st0" d="M0,291.7h11.9v6c2.7-3.6,6.3-6.8,12.3-6.8c9,0,14.2,6,14.2,15.7v27.4H26.5v-23.6c0-5.7-2.7-8.6-7.2-8.6
		c-4.5,0-7.4,2.9-7.4,8.6v23.6H0V291.7z"/>
	<path class="st0" d="M46.7,312.2V312c0-12.1,8.5-22,20.7-22c14,0,20.4,11,20.4,23c0,0.9-0.1,2.1-0.2,3.2H58.5
		c1.2,5.4,4.9,8.3,10.3,8.3c4,0,6.9-1.3,10.2-4.3l6.8,6.1c-3.9,4.9-9.5,7.9-17.1,7.9C56,334.1,46.7,325.1,46.7,312.2z M76.3,308.6
		c-0.7-5.4-3.8-9-8.8-9c-4.9,0-8.1,3.6-9.1,9H76.3z"/>
	<path class="st0" d="M91.3,291.4h12.1l6.7,25.7l7.9-25.8h10.3l8,25.9l6.9-25.7h11.8l-13.1,42.6h-10.7l-8.1-26l-8.2,26h-10.6
		L91.3,291.4z"/>
	<path class="st0" d="M160.3,325.6l21.7-24.2h-21v-9.7h35.8v8.5L175,324.4h21.8v9.7h-36.5V325.6z"/>
	<path class="st0" d="M202.6,312.2V312c0-12.2,9.7-22,22.8-22c13,0,22.6,9.7,22.6,21.9v0.2c0,12.2-9.7,22-22.8,22
		C212.2,334.1,202.6,324.4,202.6,312.2z M236.2,312.2V312c0-6.2-4.5-11.7-11-11.7c-6.8,0-10.9,5.3-10.9,11.5v0.2
		c0,6.2,4.5,11.7,11,11.7C232.1,323.7,236.2,318.4,236.2,312.2z"/>
	<path class="st0" d="M254.5,312.2V312c0-12.2,9.7-22,22.8-22c13,0,22.6,9.7,22.6,21.9v0.2c0,12.2-9.7,22-22.8,22
		C264.1,334.1,254.5,324.4,254.5,312.2z M288.2,312.2V312c0-6.2-4.5-11.7-11-11.7c-6.8,0-10.9,5.3-10.9,11.5v0.2
		c0,6.2,4.5,11.7,11,11.7C284.1,323.7,288.2,318.4,288.2,312.2z"/>
</g>
<path class="st1" d="M25.8,107.4l95.6-95.6c15.8-15.8,41.4-15.8,57.1,0l95.6,95.6c15.8,15.8,15.8,41.4,0,57.1l-95.6,95.6
	c-15.8,15.8-41.4,15.8-57.1,0l-95.6-95.6C10,148.8,10,123.2,25.8,107.4z"/>
<path class="st0" d="M127.7,196.5l82.7-82.7c12.3-12.3,32.2-12.3,44.5,0l0,0c12.3,12.3,12.3,32.2,0,44.5L172.2,241
	c-12.3,12.3-32.2,12.3-44.5,0l0,0C115.4,228.7,115.4,208.8,127.7,196.5z"/>
<path class="st0" d="M44.9,113.7L127.7,31c12.3-12.3,32.2-12.3,44.5,0l0,0c12.3,12.3,12.3,32.2,0,44.5l-82.7,82.7
	c-12.3,12.3-32.2,12.3-44.5,0l0,0C32.6,146,32.6,126,44.9,113.7z"/>
<path class="st0" d="M118.5,219V52.9c0-17.4,14.1-31.5,31.5-31.5h0c17.4,0,31.5,14.1,31.5,31.5V219c0,17.4-14.1,31.5-31.5,31.5h0
	C132.6,250.5,118.5,236.4,118.5,219z"/>
<path class="st2" d="M127.7,196.5c-12.3,12.3-12.3,32.2,0,44.5l0,0c12.3,12.3,32.2,12.3,44.5,0l2.5-2.5c4.2-5.4,6.8-12.1,6.8-19.5
	v-76.4L127.7,196.5z"/>
<path class="st2" d="M172.2,31L172.2,31c-12.3-12.3-32.2-12.3-44.5,0l-2.5,2.5c-4.2,5.4-6.8,12.1-6.8,19.5v76.4l53.8-53.8
	c6.2-6.2,9.2-14.2,9.2-22.3v0C181.5,45.2,178.4,37.1,172.2,31z"/>
</svg>
